# xmcd CD database file
#
# Track frame offsets:
#	150
#	2116
#	20463
#	30221
#	47990
#	63527
#	75110
#	89670
#	118173
#	147053
#	168421
#	189781
#	221005
#	246454
#
# Disc length: 3629 seconds
#
# Revision: 0
# Processed by: cddbd v1.5.1PL0 Copyright (c) Steve Scherf et al.
# Submitted via: CDex 1.51
#
DISCID=b50e2b0e
DTITLE=DanZa - Danza - vol.5 - 28 reasons 2 .....
DYEAR=2005
DGENRE=Salsa
TTITLE0=Intro DanZa Version 5.0
TTITLE1=Tap Tap
TTITLE2=Na Mane
TTITLE3=Saki
TTITLE4=Lootgaye
TTITLE5=Kurti Sexy
TTITLE6=Sholon Se
TTITLE7=Poocho
TTITLE8=Dheere Dheere
TTITLE9=Sunshine Chica
TTITLE10=Uchiaan
TTITLE11=Kuch Bhi Nahin Tha
TTITLE12=Chori Chori
TTITLE13=Le Chale Unplugged
EXTD=YEAR: 2005
EXTT0=
EXTT1=
EXTT2=
EXTT3=
EXTT4=
EXTT5=
EXTT6=
EXTT7=
EXTT8=
EXTT9=
EXTT10=
EXTT11=
EXTT12=
EXTT13=
PLAYORDER=
